<svg width="111" height="32" viewBox="0 0 111 32" fill="none" xmlns="http://www.w3.org/2000/svg">
<path d="M48.75 18.85L50.15 20.25C49.8607 20.6047 49.5107 20.9313 49.1 21.23C48.148 21.8833 47.098 22.21 45.95 22.21C44.4473 22.21 43.1827 21.7107 42.156 20.712C41.1387 19.7133 40.63 18.5093 40.63 17.1C40.63 15.6907 41.1387 14.4867 42.156 13.488C43.1827 12.4893 44.4473 11.99 45.95 11.99C47.098 11.99 48.1293 12.3167 49.044 12.97C49.436 13.25 49.7813 13.5767 50.08 13.95L48.68 15.35C48.4933 15.1073 48.2553 14.874 47.966 14.65C47.35 14.1833 46.678 13.95 45.95 13.95C45.0727 13.95 44.326 14.258 43.71 14.874C43.1033 15.4807 42.8 16.2227 42.8 17.1C42.8 17.9773 43.1033 18.724 43.71 19.34C44.326 19.9467 45.0727 20.25 45.95 20.25C46.6873 20.25 47.3827 20.0167 48.036 19.55C48.3347 19.326 48.5727 19.0927 48.75 18.85ZM51.3416 22V15.14H53.2316V16.12H53.3016C53.451 15.9147 53.6236 15.728 53.8196 15.56C54.2676 15.1867 54.7716 15 55.3316 15H55.4716V17.03L55.3176 17.002C55.0936 16.974 54.935 16.96 54.8416 16.96C54.375 16.96 53.9876 17.128 53.6796 17.464C53.381 17.7907 53.2316 18.2293 53.2316 18.78V22H51.3416ZM56.5134 24.73V22.98C56.6068 23.0173 56.6814 23.0407 56.7374 23.05C56.9054 23.0967 57.0874 23.12 57.2834 23.12C57.8341 23.12 58.2308 22.84 58.4734 22.28L58.6134 21.93L55.9534 15.14H57.9834L59.5934 19.69H59.6634L61.2034 15.14H63.2334L60.4334 22.56C60.1348 23.3533 59.7708 23.946 59.3414 24.338C58.9214 24.7393 58.3988 24.94 57.7734 24.94C57.4374 24.94 57.1388 24.9073 56.8774 24.842C56.8401 24.8327 56.7794 24.814 56.6954 24.786C56.6114 24.7673 56.5508 24.7487 56.5134 24.73ZM64.0702 24.94V15.14H65.9602V16.12H66.0302C66.1608 15.924 66.3382 15.7373 66.5622 15.56C67.0662 15.1867 67.6122 15 68.2002 15C69.0308 15 69.7495 15.3407 70.3562 16.022C70.9722 16.7033 71.2802 17.5527 71.2802 18.57C71.2802 19.5967 70.9722 20.4507 70.3562 21.132C69.7495 21.804 69.0308 22.14 68.2002 22.14C67.6122 22.14 67.0662 21.9533 66.5622 21.58C66.3382 21.4027 66.1608 21.216 66.0302 21.02H65.9602V24.94H64.0702ZM66.3942 19.872C66.7302 20.2173 67.1455 20.39 67.6402 20.39C68.1348 20.39 68.5502 20.2173 68.8862 19.872C69.2222 19.5267 69.3902 19.0927 69.3902 18.57C69.3902 18.0473 69.2222 17.6133 68.8862 17.268C68.5502 16.9227 68.1348 16.75 67.6402 16.75C67.1455 16.75 66.7302 16.9227 66.3942 17.268C66.0582 17.6133 65.8902 18.0473 65.8902 18.57C65.8902 19.0927 66.0582 19.5267 66.3942 19.872ZM73.2434 19.62V17.03H72.0534V15.28H72.6834C73.1968 15.28 73.4534 15 73.4534 14.44V13.18H75.1334V15.28H76.6734V17.03H75.1334V19.34C75.1334 19.648 75.2128 19.8907 75.3714 20.068C75.5394 20.236 75.7634 20.32 76.0434 20.32C76.2394 20.32 76.4214 20.2967 76.5894 20.25C76.6454 20.2407 76.7201 20.2173 76.8134 20.18V21.93C76.7761 21.9487 76.7154 21.972 76.6314 22C76.5474 22.0187 76.4868 22.0327 76.4494 22.042C76.1881 22.1073 75.8894 22.14 75.5534 22.14C74.8441 22.14 74.2794 21.9207 73.8594 21.482C73.4488 21.0433 73.2434 20.4227 73.2434 19.62ZM80.1262 19.872C80.4622 20.2173 80.8775 20.39 81.3722 20.39C81.8669 20.39 82.2822 20.2173 82.6182 19.872C82.9542 19.5267 83.1222 19.0927 83.1222 18.57C83.1222 18.0473 82.9542 17.6133 82.6182 17.268C82.2822 16.9227 81.8669 16.75 81.3722 16.75C80.8775 16.75 80.4622 16.9227 80.1262 17.268C79.7902 17.6133 79.6222 18.0473 79.6222 18.57C79.6222 19.0927 79.7902 19.5267 80.1262 19.872ZM78.7962 21.09C78.0869 20.39 77.7322 19.55 77.7322 18.57C77.7322 17.59 78.0869 16.75 78.7962 16.05C79.5055 15.35 80.3642 15 81.3722 15C82.3802 15 83.2389 15.35 83.9482 16.05C84.6575 16.75 85.0122 17.59 85.0122 18.57C85.0122 19.55 84.6575 20.39 83.9482 21.09C83.2389 21.79 82.3802 22.14 81.3722 22.14C80.3642 22.14 79.5055 21.79 78.7962 21.09ZM85.78 20.67L87.18 19.27C87.3667 19.4847 87.5673 19.662 87.782 19.802C88.2953 20.1473 88.8647 20.32 89.49 20.32C90.022 20.32 90.4233 20.2173 90.694 20.012C90.9647 19.8067 91.1 19.536 91.1 19.2C91.1 18.9013 90.932 18.654 90.596 18.458C90.26 18.2527 89.8493 18.0753 89.364 17.926C88.888 17.7767 88.4073 17.5993 87.922 17.394C87.446 17.1887 87.04 16.876 86.704 16.456C86.368 16.0267 86.2 15.4947 86.2 14.86C86.2 14.0573 86.522 13.3807 87.166 12.83C87.8193 12.27 88.6873 11.99 89.77 11.99C90.6847 11.99 91.506 12.214 92.234 12.662C92.5233 12.8393 92.7987 13.0587 93.06 13.32L91.66 14.72C91.4827 14.5427 91.3193 14.4027 91.17 14.3C90.7407 14.02 90.2973 13.88 89.84 13.88C88.86 13.88 88.37 14.2067 88.37 14.86C88.37 15.1587 88.538 15.4107 88.874 15.616C89.21 15.812 89.616 15.9847 90.092 16.134C90.5773 16.2833 91.058 16.4607 91.534 16.666C92.0193 16.8713 92.43 17.1887 92.766 17.618C93.102 18.038 93.27 18.5653 93.27 19.2C93.27 20.04 92.9293 20.754 92.248 21.342C91.576 21.9207 90.68 22.21 89.56 22.21C88.4867 22.21 87.5393 21.9533 86.718 21.44C86.3447 21.216 86.032 20.9593 85.78 20.67ZM94.5995 22V15.14H96.4895V22H94.5995ZM94.7675 13.922C94.5621 13.7073 94.4595 13.46 94.4595 13.18C94.4595 12.9 94.5668 12.6573 94.7815 12.452C94.9961 12.2373 95.2528 12.13 95.5515 12.13C95.8501 12.13 96.1021 12.2373 96.3075 12.452C96.5221 12.6573 96.6295 12.9 96.6295 13.18C96.6295 13.46 96.5221 13.7073 96.3075 13.922C96.0928 14.1273 95.8361 14.23 95.5375 14.23C95.2388 14.23 94.9821 14.1273 94.7675 13.922ZM98.8645 19.62V17.03H97.6745V15.28H98.3045C98.8179 15.28 99.0745 15 99.0745 14.44V13.18H100.755V15.28H102.295V17.03H100.755V19.34C100.755 19.648 100.834 19.8907 100.993 20.068C101.161 20.236 101.385 20.32 101.665 20.32C101.861 20.32 102.043 20.2967 102.211 20.25C102.267 20.2407 102.341 20.2173 102.435 20.18V21.93C102.397 21.9487 102.337 21.972 102.253 22C102.169 22.0187 102.108 22.0327 102.071 22.042C101.809 22.1073 101.511 22.14 101.175 22.14C100.465 22.14 99.9005 21.9207 99.4805 21.482C99.0699 21.0433 98.8645 20.4227 98.8645 19.62ZM108.953 19.69L109.933 21.02C109.737 21.216 109.485 21.4027 109.177 21.58C108.505 21.9533 107.777 22.14 106.993 22.14C105.985 22.14 105.127 21.79 104.417 21.09C103.708 20.39 103.353 19.55 103.353 18.57C103.353 17.59 103.703 16.75 104.403 16.05C105.103 15.35 105.943 15 106.923 15C107.866 15 108.673 15.336 109.345 16.008C110.017 16.68 110.353 17.4873 110.353 18.43C110.353 18.5233 110.339 18.724 110.311 19.032L110.283 19.27H105.313C105.425 19.6153 105.631 19.9 105.929 20.124C106.237 20.348 106.639 20.46 107.133 20.46C107.656 20.46 108.109 20.334 108.491 20.082C108.678 19.9607 108.832 19.83 108.953 19.69ZM105.313 17.87H108.393C108.281 17.534 108.09 17.254 107.819 17.03C107.549 16.7967 107.227 16.68 106.853 16.68C106.48 16.68 106.158 16.7967 105.887 17.03C105.617 17.254 105.425 17.534 105.313 17.87Z" fill="#5E5E5E"/>
<g clip-path="url(#clip0_131_104960)">
<path d="M22.5308 17.8771C21.6576 17.8771 20.8262 17.5425 20.1935 16.9412L17.4484 14.2013C16.6745 13.4275 15.3255 13.4275 14.5569 14.2013L11.77 16.983C11.1425 17.5634 10.3321 17.8824 9.46932 17.8824C8.56474 17.8824 7.71245 17.532 7.07454 16.8889L2.75559 12.5699L0.475853 14.8549C-0.156827 15.4876 -0.156827 16.5124 0.475853 17.1451L14.8549 31.5242C15.4876 32.1569 16.5125 32.1569 17.1451 31.5242L31.5242 17.1451C32.1569 16.5124 32.1569 15.4876 31.5242 14.8549L29.2445 12.5699L24.9308 16.8837C24.2928 17.5216 23.4406 17.8771 22.536 17.8771H22.5308Z" fill="#037BF5"/>
<path d="M10.9176 15.9373L13.6104 13.2497C14.2483 12.6118 15.1006 12.2562 16.0052 12.2562C16.9098 12.2562 17.7621 12.6066 18.4052 13.2497L21.1346 15.9791C21.8875 16.6955 23.2209 16.6955 23.979 15.9373L28.2928 11.6236L17.1451 0.475853C16.5124 -0.156827 15.4875 -0.156827 14.8549 0.475853L3.70715 11.6183L8.02088 15.9321C8.79473 16.7007 10.1385 16.7059 10.9124 15.9321L10.9176 15.9373Z" fill="#D9D9D9"/>
<path d="M10.9176 15.9373L13.6104 13.2497C14.2483 12.6118 15.1006 12.2562 16.0052 12.2562C16.9098 12.2562 17.7621 12.6066 18.4052 13.2497L21.1346 15.9791C21.8875 16.6955 23.2209 16.6955 23.979 15.9373L28.2928 11.6236L17.1451 0.475853C16.5124 -0.156827 15.4875 -0.156827 14.8549 0.475853L3.70715 11.6183L8.02088 15.9321C8.79473 16.7007 10.1385 16.7059 10.9124 15.9321L10.9176 15.9373Z" fill="url(#paint0_linear_131_104960)"/>
</g>
<defs>
<linearGradient id="paint0_linear_131_104960" x1="13.7777" y1="19.5556" x2="19.6804" y2="-5.05406" gradientUnits="userSpaceOnUse">
<stop stop-color="#01CAC4"/>
<stop offset="1" stop-color="#0278F6"/>
</linearGradient>
<clipPath id="clip0_131_104960">
<rect width="32" height="32" fill="white"/>
</clipPath>
</defs>
</svg>
