<svg width="34" height="34" viewBox="0 0 34 34" fill="none" xmlns="http://www.w3.org/2000/svg">
<circle cx="17" cy="17" r="17" fill="#7A8191"/>
<mask id="mask0_170_5222" style="mask-type:alpha" maskUnits="userSpaceOnUse" x="5" y="5" width="24" height="24">
<rect x="5" y="5" width="24" height="24" fill="#D9D9D9"/>
</mask>
<g mask="url(#mask0_170_5222)">
<path d="M16.9995 16.9999C15.8995 16.9999 14.9578 16.6082 14.1745 15.8249C13.3912 15.0415 12.9995 14.0999 12.9995 12.9999C12.9995 11.8999 13.3912 10.9582 14.1745 10.1749C14.9578 9.39154 15.8995 8.99988 16.9995 8.99988C18.0995 8.99988 19.0412 9.39154 19.8245 10.1749C20.6078 10.9582 20.9995 11.8999 20.9995 12.9999C20.9995 14.0999 20.6078 15.0415 19.8245 15.8249C19.0412 16.6082 18.0995 16.9999 16.9995 16.9999ZM8.99951 24.9999V22.1999C8.99951 21.6332 9.14551 21.1122 9.43751 20.6369C9.72885 20.1622 10.1162 19.7999 10.5995 19.5499C11.6328 19.0332 12.6828 18.6455 13.7495 18.3869C14.8162 18.1289 15.8995 17.9999 16.9995 17.9999C18.0995 17.9999 19.1828 18.1289 20.2495 18.3869C21.3162 18.6455 22.3662 19.0332 23.3995 19.5499C23.8828 19.7999 24.2702 20.1622 24.5615 20.6369C24.8535 21.1122 24.9995 21.6332 24.9995 22.1999V24.9999H8.99951Z" fill="#F4F5FA"/>
</g>
</svg>
