<svg xmlns="http://www.w3.org/2000/svg" width="15" height="17" viewBox="0 0 15 17" fill="none">
	<path d="M13.6835 14.4599C12.0208 15.6871 9.52686 16.4393 7.50793 16.4393C4.61808 16.4393 2.04493 15.2913 0.0655897 13.5099C-0.0927579 13.3515 0.0655897 13.1932 0.223937 13.2723C2.36163 14.4995 4.77643 15.2121 7.46834 15.2121C9.28934 15.2121 11.5854 14.8162 13.446 14.0245C13.7231 13.9453 13.9606 14.262 13.6835 14.4599ZM14.2773 13.6286C14.0793 13.3515 12.8917 13.5099 12.3771 13.5494C12.2188 13.5494 12.1792 13.4307 12.3375 13.3119C13.248 12.6389 14.7919 12.8369 14.9503 13.0744C15.1086 13.3119 14.9107 14.8558 14.0398 15.5684C13.921 15.6871 13.7627 15.608 13.8418 15.4892C14.0398 15.0142 14.4752 13.9057 14.2773 13.6286Z" fill="#FFB300" />
	<path d="M12.6144 10.8175C12.2186 10.3029 11.8227 9.86746 11.8227 8.87779V5.59208C11.8227 4.20654 11.8227 2.97934 10.833 2.02926C10.0413 1.27711 8.73491 1 7.70565 1C5.52837 1 3.6282 1.87091 3.15316 4.3253C3.11357 4.60241 3.3115 4.72117 3.46985 4.76075L5.48878 4.99828C5.68672 4.99828 5.80548 4.80034 5.84507 4.60241C6.00341 3.77108 6.67639 3.37521 7.46813 3.37521C7.90358 3.37521 8.73491 3.61273 8.73491 4.56282V5.75043C7.46813 5.75043 6.12217 5.75043 5.01374 6.22547C3.70737 6.77969 2.79688 7.92771 2.79688 9.62994C2.79688 11.8072 4.14283 12.8761 5.88465 12.8761C7.34937 12.8761 8.22028 12.5198 9.3683 11.3718C9.72458 11.926 9.88293 12.2427 10.5559 12.8365C10.7143 12.9157 10.9122 12.9157 11.0309 12.7969C11.4268 12.4406 12.179 11.7676 12.6144 11.4114C12.8124 11.253 12.7728 11.0155 12.6144 10.8175ZM8.69532 7.76936C8.69532 8.5611 8.65573 10.5009 6.71598 10.5009C5.52837 10.5009 5.52837 9.31325 5.52837 9.31325C5.52837 7.53184 7.19102 7.3339 8.69532 7.3339V7.76936Z" fill="#37474F" />

</svg>