<svg viewBox="0 0 20 20" fill="none" xmlns="http://www.w3.org/2000/svg">
    <path
        d="M12.5001 3.33331C13.8186 3.33331 15.1075 3.72431 16.2039 4.45685C17.3002 5.18939 18.1547 6.23058 18.6593 7.44876C19.1638 8.66693 19.2959 10.0074 19.0386 11.3006C18.7814 12.5938 18.1465 13.7817 17.2141 14.714C16.2818 15.6464 15.0939 16.2813 13.8007 16.5385C12.5075 16.7958 11.167 16.6638 9.94884 16.1592C8.73067 15.6546 7.68948 14.8001 6.95693 13.7038C6.22439 12.6075 5.8334 11.3185 5.8334 9.99998C5.8334 8.23187 6.53578 6.53618 7.78602 5.28593C9.03626 4.03569 10.732 3.33331 12.5001 3.33331ZM2.50007 9.99998C2.50125 11.033 2.82235 12.0403 3.41923 12.8834C4.01611 13.7264 4.85948 14.364 5.8334 14.7083V16.45C4.40674 16.0771 3.14396 15.2417 2.24269 14.0746C1.34143 12.9075 0.852539 11.4746 0.852539 9.99998C0.852539 8.52539 1.34143 7.09242 2.24269 5.92532C3.14396 4.75822 4.40674 3.92286 5.8334 3.54998V5.29165C4.85948 5.63598 4.01611 6.27351 3.41923 7.11661C2.82235 7.95971 2.50125 8.96698 2.50007 9.99998Z"
         />
</svg>