<svg viewBox="0 0 20 20" xmlns="http://www.w3.org/2000/svg">
    <path
        d="M15.4541 6.97087C16.1237 6.30123 16.1237 5.21552 15.4541 4.54587C14.7844 3.87623 13.6987 3.87623 13.0291 4.54587L9.99992 7.57504L6.97075 4.54587C6.30111 3.87623 5.2154 3.87623 4.54575 4.54587C3.87611 5.21552 3.87611 6.30123 4.54575 6.97087L7.57492 10L4.54575 13.0292C3.87611 13.6989 3.87611 14.7846 4.54575 15.4542C5.2154 16.1239 6.30111 16.1239 6.97075 15.4542L9.99992 12.425L13.0291 15.4542C13.6987 16.1239 14.7844 16.1239 15.4541 15.4542C16.1237 14.7846 16.1237 13.6989 15.4541 13.0292L12.4249 10L15.4541 6.97087Z"
    />
</svg>