<svg width="18" height="18" viewBox="0 0 18 18" fill="none" xmlns="http://www.w3.org/2000/svg">
<path d="M8.99976 15.0225C12.3073 15.0225 15.0223 12.3075 15.0223 9C15.0223 5.6925 12.3073 2.9775 8.99976 2.9775C5.69226 2.9775 2.97726 5.6925 2.97726 9C2.97726 12.3075 5.69226 15.0225 8.99976 15.0225ZM8.99976 16.5C4.84476 16.5 1.49976 13.155 1.49976 9C1.49976 4.845 4.84476 1.5 8.99976 1.5C13.1548 1.5 16.4998 4.845 16.4998 9C16.4998 13.155 13.1548 16.5 8.99976 16.5ZM8.24976 10.155H6.7292C6.4612 10.155 6.32768 10.4796 6.51813 10.6682L8.78869 12.916C8.9056 13.0318 9.09391 13.0318 9.21082 12.916L11.4814 10.6682C11.6718 10.4796 11.5383 10.155 11.2703 10.155H9.74975V4.875H8.24976" fill="white"/>
</svg>
