<svg viewBox="0 0 16 16" fill="none" xmlns="http://www.w3.org/2000/svg">
    <g clip-path="url(#clip0_264_3730)">
        <rect width="8" height="8" fill="#0052B4" />
        <path d="M3 1L3.61947 3L2 1.76279H4L2.38053 3L3 1Z" fill="white" />
        <path d="M6 1L6.61947 3L5 1.76279H7L5.38053 3L6 1Z" fill="white" />
        <path d="M6 3L6.61947 5L5 3.76279H7L5.38053 5L6 3Z" fill="white" />
        <path d="M3 3L3.61947 5L2 3.76279H4L2.38053 5L3 3Z" fill="white" />
        <path d="M8.23641e-07 3L0.619469 5L-1 3.76279H1L-0.619469 5L8.23641e-07 3Z" fill="white" />
        <path d="M6 5L6.61947 7L5 5.76279H7L5.38053 7L6 5Z" fill="white" />
        <path d="M3 5L3.61947 7L2 5.76279H4L2.38053 7L3 5Z" fill="white" />
        <path d="M8.23641e-07 5L0.619469 7L-1 5.76279H1L-0.619469 7L8.23641e-07 5Z" fill="white" />
        <rect x="8" y="2" width="9" height="2" fill="#D80027" />
        <rect x="8" y="2" width="9" height="2" fill="#D80027" />
        <rect x="8" y="6" width="9" height="2" fill="#D80027" />
        <rect x="-1" y="10" width="18" height="2" fill="#D80027" />
        <rect x="-1" y="14" width="18" height="2" fill="#D80027" />
    </g>
    <defs>
        <clipPath id="clip0_264_3730">
            <rect width="16" height="16" rx="8" fill="white" />
        </clipPath>
    </defs>
</svg>