<svg width="18" height="18" viewBox="0 0 18 18" fill="none" xmlns="http://www.w3.org/2000/svg">
<path d="M1.5 3.9525L2.46 3L15 15.54L14.0475 16.5L11.7375 14.19C10.875 14.475 9.96 14.625 9 14.625C5.25 14.625 2.0475 12.2925 0.75 9C1.2675 7.68 2.0925 6.5175 3.1425 5.595L1.5 3.9525ZM9 6.75C9.59674 6.75 10.169 6.98705 10.591 7.40901C11.0129 7.83097 11.25 8.40326 11.25 9C11.25 9.2625 11.205 9.5175 11.1225 9.75L8.25 6.8775C8.4825 6.795 8.7375 6.75 9 6.75ZM9 3.375C12.75 3.375 15.9525 5.7075 17.25 9C16.635 10.56 15.5925 11.91 14.25 12.8925L13.185 11.82C14.205 11.115 15.045 10.155 15.615 9C14.3775 6.48 11.82 4.875 9 4.875C8.1825 4.875 7.38 5.01 6.63 5.25L5.475 4.1025C6.555 3.6375 7.7475 3.375 9 3.375ZM2.385 9C3.6225 11.52 6.18 13.125 9 13.125C9.5175 13.125 10.0275 13.0725 10.5 12.9675L8.79 11.25C7.7175 11.1375 6.8625 10.2825 6.75 9.21L4.2 6.6525C3.4575 7.29 2.835 8.085 2.385 9Z" fill="#E8E8E8"/>
</svg>
