<svg xmlns="http://www.w3.org/2000/svg" width="15" height="17" viewBox="0 0 15 17" fill="none">
	<path d="M7.5 1C5.51088 1 3.60322 1.79018 2.1967 3.1967C0.790176 4.60322 0 6.51088 0 8.5C0 10.4891 0.790176 12.3968 2.1967 13.8033C3.60322 15.2098 5.51088 16 7.5 16C9.48912 16 11.3968 15.2098 12.8033 13.8033C14.2098 12.3968 15 10.4891 15 8.5C15 6.51088 14.2098 4.60322 12.8033 3.1967C11.3968 1.79018 9.48912 1 7.5 1V1Z" fill="#039BE5" />
	<path d="M8.5162 10.4886H10.4571L10.7619 8.51692H8.51581V7.43929C8.51581 6.62021 8.78344 5.89389 9.54962 5.89389H10.7808V4.17324C10.5645 4.14403 10.107 4.08008 9.24252 4.08008C7.43738 4.08008 6.3791 5.03337 6.3791 7.20521V8.51692H4.52344V10.4886H6.3791V15.908C6.7466 15.9632 7.11883 16.0007 7.50094 16.0007C7.84633 16.0007 8.18344 15.9692 8.5162 15.9242V10.4886Z" fill="white" />

</svg>