<svg xmlns="http://www.w3.org/2000/svg" width="15" height="17" fill="none">
	<g clip-path="url(#clip0_96_45)">
		<path d="M14.992 8.65c0-.656-.05-1.134-.161-1.63H7.649v2.958h4.216c-.085.736-.544 1.843-1.564 2.587l-.014.1 2.27 1.833.157.016c1.445-1.39 2.278-3.437 2.278-5.864z" fill="#4285F4" />
		<path d="M7.65 16.445c2.065 0 3.798-.709 5.064-1.931l-2.413-1.949c-.646.47-1.513.797-2.652.797-2.022 0-3.739-1.39-4.35-3.313l-.09.008-2.361 1.905-.031.09c1.257 2.604 3.84 4.393 6.832 4.393z" fill="#34A853" />
		<path d="M3.298 10.05a5.097 5.097 0 01-.255-1.577c0-.55.094-1.081.247-1.577l-.005-.106-2.39-1.935-.078.039a8.256 8.256 0 000 7.157l2.481-2.002z" fill="#FBBC05" />
		<path d="M7.65 3.583a4.15 4.15 0 012.957 1.187l2.159-2.197C11.44 1.288 9.714.5 7.648.5 4.658.5 2.074 2.29.817 4.894L3.29 6.896c.62-1.923 2.337-3.313 4.36-3.313z" fill="#EB4335" />
	</g>
	<defs>
		<clipPath id="clip0_96_45">
			<path fill="#fff" transform="translate(0 .5)" d="M0 0h15v16H0z" />
		</clipPath>
	</defs>

</svg>