<svg viewBox="0 0 18 18" fill="none" xmlns="http://www.w3.org/2000/svg">
    <path
        d="M14.25 2.25H3.75C2.9175 2.25 2.25 2.9175 2.25 3.75V6.75H3.75V3.75H14.25V14.25H3.75V11.25H2.25V14.25C2.25 14.6478 2.40804 15.0294 2.68934 15.3107C2.97064 15.592 3.35218 15.75 3.75 15.75H14.25C14.6478 15.75 15.0294 15.592 15.3107 15.3107C15.592 15.0294 15.75 14.6478 15.75 14.25V3.75C15.75 2.9175 15.075 2.25 14.25 2.25ZM7.56 11.685L8.625 12.75L12.375 9L8.625 5.25L7.56 6.3075L9.5025 8.25H2.25V9.75H9.5025L7.56 11.685Z"
        fill="#70748D" />
</svg>