<svg viewBox="0 0 28 28" fill="none" xmlns="http://www.w3.org/2000/svg">
    <g clip-path="url(#clip0_131_107719)">
        <path
            d="M13.9998 0C6.26916 0 0 6.26905 0 13.9999C0 15.545 0.250469 17.0313 0.712906 18.4219H4.9V6.64267L14 15.7427L23.0998 6.64267V18.4218H27.2869C27.7496 17.0312 28.0001 15.5449 28.0001 13.9998C28 6.26872 21.7307 0 13.9998 0Z"
        />
        <path
            d="M11.9073 17.8349L7.9359 13.8634V21.2752H2.03687C4.49452 25.3071 8.93307 27.9996 13.9995 27.9996C19.066 27.9996 23.505 25.3071 25.9623 21.2752H20.0634V13.8633L16.092 17.8347L13.9996 19.9269L11.9075 17.8348L11.9073 17.8349Z"
        />
    </g>
    <defs>
        <clipPath id="clip0_131_107719">
            <rect fill="white" />
        </clipPath>
    </defs>
</svg>