<svg width="20" height="21" viewBox="0 0 20 21" fill="none" xmlns="http://www.w3.org/2000/svg">
<g clip-path="url(#clip0_131_107659)">
<path d="M2.96671 16.3729C4.30004 15.0396 4.43338 14.7063 5.26671 15.5396C6.10004 16.3729 5.76671 16.4729 4.43338 17.8396C3.43338 18.8396 2.16672 18.6396 2.16672 18.6396C2.16672 18.6396 1.96672 17.3729 2.96671 16.3729Z" fill="#FF9D27"/>
<path d="M5.49997 17.7397C6.0333 16.3397 6.19997 16.173 5.4333 15.7397C4.66664 15.3063 4.66664 15.6063 4.16664 17.0063C3.76664 18.0397 4.2333 18.973 4.2333 18.973C4.2333 18.973 5.1333 18.8063 5.49997 17.7397Z" fill="#FF9D27"/>
<path d="M4.73334 16.4396C5.03334 15.6729 5.03334 15.5062 5.43334 15.7396C5.86667 15.9729 5.76667 16.0729 5.46667 16.8396C5.26667 17.4062 4.76668 17.5396 4.76668 17.5396C4.76668 17.5396 4.53334 17.0396 4.73334 16.4396Z" fill="#FDF516"/>
<path d="M5.03337 15.3729C4.60004 14.6063 4.43337 14.7729 3.03338 15.3063C2.00005 15.7063 1.80005 16.5729 1.80005 16.5729C1.80005 16.5729 2.73338 17.0396 3.76671 16.6396C5.16671 16.1063 5.46671 16.1063 5.03337 15.3729Z" fill="#FF9D27"/>
<path d="M4.33315 16.073C5.09982 15.773 5.26648 15.773 5.03315 15.373C4.79982 14.9396 4.69982 15.0396 3.93315 15.3396C3.36649 15.5396 3.23315 16.0396 3.23315 16.0396C3.23315 16.0396 3.76649 16.273 4.33315 16.073Z" fill="#FDF516"/>
<path d="M3.9664 16.0063C4.69973 15.273 4.7664 15.073 5.23307 15.5397C5.69973 16.0063 5.49973 16.073 4.7664 16.8063C4.19973 17.373 3.49974 17.2397 3.49974 17.2397C3.49974 17.2397 3.43307 16.573 3.9664 16.0063Z" fill="#FDF516"/>
<path d="M5.49998 12.8063C3.43332 9.33961 0 10.7729 0 10.7729C0 10.7729 4.89999 5.87294 8.19998 9.17294L5.49998 12.8063Z" fill="#3BAACF"/>
<path d="M7.09998 10.2396L8.16665 9.17294C4.89999 5.87294 0 10.7729 0 10.7729C0 10.7729 4.29999 7.70628 7.09998 10.2396Z" fill="#428BC1"/>
<path d="M8 15.3063C11.4667 17.373 10.0333 20.8063 10.0333 20.8063C10.0333 20.8063 14.9333 15.9063 11.6333 12.6063L8 15.3063Z" fill="#3BAACF"/>
<path d="M10.5665 13.7063L11.6332 12.6396C14.9332 15.9396 10.0332 20.8396 10.0332 20.8396C10.0332 20.8396 13.0999 16.5063 10.5665 13.7063Z" fill="#428BC1"/>
<path d="M15.5999 10.4396C11.6999 14.3062 7.39989 16.4062 5.89989 14.9062C4.3999 13.4062 6.49989 9.10622 10.3665 5.20623C14.8999 0.672897 19.9332 0.872897 19.9332 0.872897C19.9332 0.872897 20.0999 5.90622 15.5999 10.4396Z" fill="#C5D0D8"/>
<path d="M14.6 9.3396C10.7333 13.2063 6.86664 15.7396 5.96665 14.8396C5.06665 13.9396 7.59998 10.0729 11.4666 6.20627C16 1.67294 19.9999 0.806274 19.9999 0.806274C19.9999 0.806274 19.1333 4.80627 14.6 9.3396Z" fill="#DAE3EA"/>
<path d="M7.43324 15.973C7.26658 16.1396 6.99991 16.1396 6.83325 15.973L4.83325 13.973C4.66659 13.8063 4.66659 13.5063 4.83325 13.3396L5.43325 12.7396L8.03324 15.3396L7.43324 15.973Z" fill="#C94747"/>
<path d="M6.86671 15.3729C6.70004 15.5396 6.50004 15.6063 6.40004 15.5063L5.26671 14.3729C5.16671 14.2729 5.23338 14.0729 5.40004 13.9063L6.00004 13.3063L7.4667 14.7729L6.86671 15.3729Z" fill="#F15744"/>
<path d="M6.30006 16.2062C6.20006 16.3062 5.96672 16.3062 5.86672 16.2062L4.56673 14.9062C4.46673 14.8062 4.50006 14.6062 4.60006 14.5062L5.00006 14.1062L6.70005 15.8062L6.30006 16.2062Z" fill="#3E4347"/>
<path d="M6.0334 15.9397C5.9334 16.0397 5.7334 16.073 5.66673 16.0063L4.76673 15.1063C4.70007 15.0397 4.7334 14.873 4.86673 14.773L5.26673 14.373L6.43339 15.5397L6.0334 15.9397Z" fill="#62727A"/>
<path d="M19.9333 0.872929C19.9333 0.872929 18.1333 0.806262 15.7 1.73959L19.0666 5.10626C19.9999 2.67293 19.9333 0.872929 19.9333 0.872929Z" fill="#C94747"/>
<path d="M19.9332 0.872925C19.9332 0.872925 18.4999 1.17292 16.3333 2.40626L18.3999 4.47292C19.6332 2.30626 19.9332 0.872925 19.9332 0.872925Z" fill="#F15744"/>
<path d="M13.8334 8.6396C14.7539 8.6396 15.5001 7.89341 15.5001 6.97294C15.5001 6.05247 14.7539 5.30627 13.8334 5.30627C12.9129 5.30627 12.1667 6.05247 12.1667 6.97294C12.1667 7.89341 12.9129 8.6396 13.8334 8.6396Z" fill="#EDF4F9"/>
<path d="M13.8332 8.07292C14.4407 8.07292 14.9331 7.58044 14.9331 6.97292C14.9331 6.36541 14.4407 5.87292 13.8332 5.87292C13.2256 5.87292 12.7332 6.36541 12.7332 6.97292C12.7332 7.58044 13.2256 8.07292 13.8332 8.07292Z" fill="#3BAACF"/>
<path d="M10.4999 11.9729C11.4204 11.9729 12.1666 11.2267 12.1666 10.3062C12.1666 9.38572 11.4204 8.63953 10.4999 8.63953C9.57944 8.63953 8.83325 9.38572 8.83325 10.3062C8.83325 11.2267 9.57944 11.9729 10.4999 11.9729Z" fill="#EDF4F9"/>
<path d="M10.4999 11.4063C11.1074 11.4063 11.5999 10.9138 11.5999 10.3063C11.5999 9.69878 11.1074 9.2063 10.4999 9.2063C9.89239 9.2063 9.3999 9.69878 9.3999 10.3063C9.3999 10.9138 9.89239 11.4063 10.4999 11.4063Z" fill="#3BAACF"/>
<path d="M15.6332 2.43954C15.5332 2.53954 15.3332 2.53954 15.2332 2.43954C15.1332 2.33954 15.1332 2.13954 15.2332 2.03954C15.3332 1.93954 15.5332 1.93954 15.6332 2.03954C15.7332 2.13954 15.7332 2.33954 15.6332 2.43954Z" fill="white"/>
<path d="M16.1998 3.2729C16.347 3.2729 16.4664 3.15351 16.4664 3.00623C16.4664 2.85895 16.347 2.73956 16.1998 2.73956C16.0525 2.73956 15.9331 2.85895 15.9331 3.00623C15.9331 3.15351 16.0525 3.2729 16.1998 3.2729Z" fill="white"/>
<path d="M16.9998 4.07288C17.1471 4.07288 17.2665 3.95349 17.2665 3.80622C17.2665 3.65894 17.1471 3.53955 16.9998 3.53955C16.8525 3.53955 16.7332 3.65894 16.7332 3.80622C16.7332 3.95349 16.8525 4.07288 16.9998 4.07288Z" fill="white"/>
<path d="M17.7664 4.87293C17.9137 4.87293 18.0331 4.75354 18.0331 4.60627C18.0331 4.45899 17.9137 4.3396 17.7664 4.3396C17.6191 4.3396 17.4998 4.45899 17.4998 4.60627C17.4998 4.75354 17.6191 4.87293 17.7664 4.87293Z" fill="white"/>
<path d="M18.5665 5.6396C18.7137 5.6396 18.8331 5.5202 18.8331 5.37293C18.8331 5.22565 18.7137 5.10626 18.5665 5.10626C18.4192 5.10626 18.2998 5.22565 18.2998 5.37293C18.2998 5.5202 18.4192 5.6396 18.5665 5.6396Z" fill="white"/>
</g>
<defs>
<clipPath id="clip0_131_107659">
<rect width="20" height="20" fill="white" transform="translate(0 0.806274)"/>
</clipPath>
</defs>
</svg>
