<svg viewBox="0 0 22 22" xmlns="http://www.w3.org/2000/svg">
<path d="M8.70833 2.75C10.2886 2.75 11.8041 3.37775 12.9215 4.49516C14.0389 5.61256 14.6667 7.12808 14.6667 8.70833C14.6667 10.1842 14.1258 11.5408 13.2367 12.5858L13.4842 12.8333H14.2083L18.7917 17.4167L17.4167 18.7917L12.8333 14.2083V13.4842L12.5858 13.2367C11.5408 14.1258 10.1842 14.6667 8.70833 14.6667C7.12808 14.6667 5.61256 14.0389 4.49516 12.9215C3.37775 11.8041 2.75 10.2886 2.75 8.70833C2.75 7.12808 3.37775 5.61256 4.49516 4.49516C5.61256 3.37775 7.12808 2.75 8.70833 2.75ZM8.70833 4.58333C6.41667 4.58333 4.58333 6.41667 4.58333 8.70833C4.58333 11 6.41667 12.8333 8.70833 12.8333C11 12.8333 12.8333 11 12.8333 8.70833C12.8333 6.41667 11 4.58333 8.70833 4.58333Z" fill="black"/>
</svg>
