<svg width="15" height="17" viewBox="0 0 15 17" fill="none" xmlns="http://www.w3.org/2000/svg">
	<path d="M15 3.42863C14.4488 3.67278 13.8559 3.83568 13.2306 3.91276C13.8663 3.53529 14.3555 2.93326 14.585 2.22206C13.9901 2.57079 13.331 2.82701 12.6298 2.962C12.0698 2.3683 11.2711 2 10.3862 2C8.68636 2 7.30856 3.36572 7.30856 5.04975C7.30856 5.28806 7.33647 5.52012 7.38897 5.74552C4.83168 5.6172 2.56354 4.40147 1.04616 2.55662C0.779518 3.00742 0.629531 3.53529 0.629531 4.09233C0.629531 5.15099 1.17157 6.08299 1.99817 6.63211C1.49363 6.6167 1.01866 6.47629 0.602866 6.25131C0.602866 6.26048 0.602866 6.27423 0.602866 6.28714C0.602866 7.7666 1.66403 8.99858 3.07058 9.27898C2.81352 9.34939 2.54187 9.38855 2.26189 9.38855C2.06316 9.38855 1.86943 9.36605 1.68194 9.33231C2.07358 10.5414 3.20973 11.425 4.55587 11.4513C3.50262 12.2679 2.17607 12.757 0.733689 12.757C0.484543 12.757 0.240813 12.7429 0 12.7137C1.3628 13.5765 2.981 14.0823 4.71794 14.0823C10.3779 14.0823 13.4743 9.43438 13.4743 5.40222C13.4743 5.27014 13.4701 5.13849 13.4639 5.0085C14.068 4.58187 14.5888 4.04358 15 3.42863Z" fill="#03A9F4" />
</svg>