<svg width="18" height="18" viewBox="0 0 18 18" fill="none" xmlns="http://www.w3.org/2000/svg">
<path d="M15.75 13.5V14.25C15.75 14.6478 15.592 15.0294 15.3107 15.3107C15.0294 15.592 14.6478 15.75 14.25 15.75H3.75C2.9175 15.75 2.25 15.075 2.25 14.25V3.75C2.25 3.35218 2.40804 2.97064 2.68934 2.68934C2.97064 2.40804 3.35218 2.25 3.75 2.25H14.25C14.6478 2.25 15.0294 2.40804 15.3107 2.68934C15.592 2.97064 15.75 3.35218 15.75 3.75V4.5H9C8.1675 4.5 7.5 5.175 7.5 6V12C7.5 12.3978 7.65804 12.7794 7.93934 13.0607C8.22064 13.342 8.60218 13.5 9 13.5M9 12H16.5V6H9M12 10.125C11.7016 10.125 11.4155 10.0065 11.2045 9.7955C10.9935 9.58452 10.875 9.29837 10.875 9C10.875 8.70163 10.9935 8.41548 11.2045 8.2045C11.4155 7.99353 11.7016 7.875 12 7.875C12.2984 7.875 12.5845 7.99353 12.7955 8.2045C13.0065 8.41548 13.125 8.70163 13.125 9C13.125 9.29837 13.0065 9.58452 12.7955 9.7955C12.5845 10.0065 12.2984 10.125 12 10.125Z" fill="#70748D"/>
</svg>
