<svg width="15" height="17" viewBox="0 0 15 17" fill="none" xmlns="http://www.w3.org/2000/svg">
	<path d="M7.49971 12.5287C9.72487 12.5287 11.5287 10.7249 11.5287 8.49971C11.5287 6.27455 9.72487 4.4707 7.49971 4.4707C5.27455 4.4707 3.4707 6.27455 3.4707 8.49971C3.4707 10.7249 5.27455 12.5287 7.49971 12.5287Z" fill="#F8B62D" />
	<path d="M11.1724 8.50033C11.16 10.0174 10.2093 11.4313 8.76782 11.9492C8.04919 12.2065 7.26879 12.2365 6.53255 12.035C5.79631 11.8336 5.13987 11.4105 4.65234 10.8232C3.6774 9.64347 3.56527 7.91831 4.34922 6.61079C5.13316 5.30326 6.71341 4.58916 8.21668 4.89656C9.0467 5.06964 9.79252 5.52151 10.3302 6.17709C10.8679 6.83267 11.1651 7.65249 11.1724 8.50033C11.1762 8.95882 11.8889 8.95977 11.8851 8.50033C11.8772 7.59993 11.5958 6.72319 11.0782 5.98639C10.5606 5.2496 9.83124 4.68758 8.98685 4.37488C7.27262 3.74345 5.25622 4.30266 4.10881 5.72137C2.96139 7.14007 2.78845 9.1731 3.73346 10.7495C4.6837 12.336 6.56374 13.1546 8.37442 12.7978C10.4056 12.3963 11.8708 10.5509 11.8851 8.50033C11.8889 8.04184 11.1762 8.04137 11.1724 8.50033Z" fill="#231815" />
	<path d="M7.85721 2.8646V1.34422C7.85721 0.885734 7.14453 0.884784 7.14453 1.34422V2.8646C7.14453 3.32309 7.85721 3.32404 7.85721 2.8646Z" fill="#231815" />
	<path d="M4.98999 3.43959L4.2298 2.12399C4.00031 1.72679 3.38456 2.08551 3.61214 2.48366L4.37233 3.79926C4.60181 4.19646 5.21757 3.83774 4.98999 3.43959Z" fill="#231815" />
	<path d="M2.79947 5.37521L1.48387 4.61502C1.08572 4.38506 0.726527 5.00081 1.1242 5.23267L2.4398 5.99286C2.83795 6.22282 3.19714 5.60706 2.79947 5.37521Z" fill="#231815" />
	<path d="M1.8646 8.14453H0.344223C-0.114266 8.14453 -0.115216 8.85721 0.344223 8.85721H1.8646C2.32309 8.85721 2.32404 8.14453 1.8646 8.14453Z" fill="#231815" />
	<path d="M2.43959 11.0106L1.12399 11.7708C0.726792 12.0003 1.08551 12.616 1.48366 12.3884L2.79926 11.6282C3.19646 11.3988 2.83774 10.783 2.43959 11.0106Z" fill="#231815" />
	<path d="M4.37521 13.2004L3.61502 14.516C3.38506 14.9141 4.00081 15.2733 4.23267 14.8756L4.99286 13.56C5.22282 13.1619 4.60706 12.8027 4.37521 13.2004Z" fill="#231815" />
	<path d="M7.14453 14.1352V15.6556C7.14453 16.1141 7.85721 16.1151 7.85721 15.6556V14.1352C7.85721 13.6767 7.14453 13.6758 7.14453 14.1352Z" fill="#231815" />
	<path d="M10.0106 13.5598L10.7708 14.8754C11.0003 15.2726 11.616 14.9139 11.3884 14.5158L10.6282 13.2002C10.3988 12.803 9.783 13.1617 10.0106 13.5598Z" fill="#231815" />
	<path d="M12.2004 11.6252L13.516 12.3854C13.9141 12.6154 14.2733 11.9996 13.8756 11.7678L12.56 11.0076C12.1619 10.7776 11.8027 11.3934 12.2004 11.6252Z" fill="#231815" />
	<path d="M13.1352 8.85721H14.6556C15.1141 8.85721 15.1151 8.14453 14.6556 8.14453H13.1352C12.6767 8.14453 12.6758 8.85721 13.1352 8.85721Z" fill="#231815" />
	<path d="M12.5598 5.98999L13.8754 5.2298C14.2726 5.00031 13.9139 4.38456 13.5158 4.61214L12.2002 5.37233C11.803 5.60181 12.1617 6.21757 12.5598 5.98999Z" fill="#231815" />
	<path d="M10.6252 3.79947L11.3854 2.48387C11.6154 2.08572 10.9996 1.72653 10.7678 2.1242L10.0076 3.4398C9.77764 3.83795 10.3934 4.19714 10.6252 3.79947Z" fill="#231815" />
</svg>