<svg xmlns="http://www.w3.org/2000/svg" width="15" height="17" viewBox="0 0 15 17" fill="none">
	<path fill-rule="evenodd" clip-rule="evenodd" d="M0.373047 15.6889L1.37994 12.0131C0.75876 10.9374 0.4321 9.71672 0.432474 8.46651C0.434342 4.55518 3.61723 1.37305 7.52893 1.37305C9.42722 1.37379 11.2085 2.11271 12.5484 3.45336C13.888 4.79439 14.6258 6.57644 14.625 8.47212C14.6235 12.3834 11.4399 15.566 7.52893 15.566C7.52856 15.566 7.52893 15.566 7.52893 15.566H7.52594C6.33853 15.5656 5.17129 15.2677 4.13488 14.7022L0.373047 15.6889Z" fill="white" />
	<path fill-rule="evenodd" clip-rule="evenodd" d="M0.374213 15.8771C0.324878 15.8771 0.277037 15.8577 0.241531 15.8218C0.194812 15.7743 0.176498 15.7052 0.194064 15.6413L1.1804 12.0398C0.568939 10.9537 0.24639 9.72029 0.247137 8.46822C0.248632 4.45336 3.51561 1.1875 7.5301 1.1875C9.47735 1.18825 11.3069 1.94659 12.6819 3.32275C14.057 4.69929 14.8138 6.52844 14.8131 8.47345C14.8116 12.4879 11.5442 15.7542 7.5301 15.7542C6.3382 15.7538 5.159 15.4596 4.1125 14.9031L0.42168 15.8708C0.405982 15.8753 0.390285 15.8771 0.374213 15.8771Z" fill="white" />
	<path fill-rule="evenodd" clip-rule="evenodd" d="M7.52979 1.37375C9.42808 1.3745 11.2094 2.11341 12.5493 3.45407C13.8888 4.79509 14.6266 6.57715 14.6259 8.47283C14.6244 12.3842 11.4407 15.5667 7.52979 15.5667H7.5268C6.33939 15.5663 5.17215 15.2684 4.13574 14.7029L0.373907 15.6896L1.3808 12.0138C0.759621 10.9381 0.43296 9.71743 0.433334 8.46722C0.435203 4.55589 3.61809 1.37375 7.52979 1.37375ZM7.52979 1C3.41252 1 0.0614493 4.34958 0.0595805 8.46722C0.0592068 9.72565 0.376897 10.9658 0.979388 12.0635L0.0132352 15.5913C-0.0218977 15.7203 0.0139826 15.8578 0.108169 15.9528C0.179182 16.0245 0.275236 16.0638 0.373907 16.0638C0.405676 16.0638 0.437445 16.0596 0.468841 16.0514L4.08939 15.1021C5.14636 15.6508 6.33116 15.9404 7.5268 15.9408C11.6471 15.9408 14.9981 12.5908 15 8.4732C15.0007 6.47773 14.2245 4.60149 12.8143 3.19019C11.4034 1.77853 9.52676 1.00075 7.52979 1Z" fill="#CFD8DC" />
	<path fill-rule="evenodd" clip-rule="evenodd" d="M11.7013 4.30125C10.5875 3.18672 9.10705 2.57264 7.5313 2.57227C4.27815 2.57227 1.63235 5.21694 1.63086 8.46785C1.63049 9.58201 1.9422 10.6666 2.53273 11.6059L2.67326 11.829L2.07712 14.0046L4.30955 13.4193L4.52521 13.5472C5.43044 14.0846 6.46872 14.3687 7.52719 14.369H7.52944C10.7803 14.369 13.4261 11.724 13.4273 8.47271C13.4276 6.89734 12.8151 5.41578 11.7013 4.30125Z" fill="#40C351" />
	<path fill-rule="evenodd" clip-rule="evenodd" d="M5.75634 5.502C5.62366 5.20674 5.48388 5.20076 5.35717 5.19553C5.25364 5.19104 5.13554 5.19141 5.01743 5.19141C4.89932 5.19141 4.70721 5.23589 4.54463 5.41342C4.38205 5.59096 3.92383 6.01965 3.92383 6.89199C3.92383 7.76433 4.55921 8.60752 4.64779 8.72563C4.73637 8.84373 5.87445 10.6912 7.67669 11.4021C9.17432 11.9926 9.4793 11.8752 9.80446 11.8457C10.1296 11.8162 10.8536 11.417 11.0012 11.0029C11.1489 10.5888 11.1489 10.2341 11.1048 10.1601C11.0603 10.0861 10.9422 10.042 10.765 9.95303C10.5879 9.86408 9.71588 9.43538 9.5533 9.37633C9.39072 9.31728 9.27261 9.28775 9.15413 9.46528C9.03603 9.64244 8.69629 10.042 8.59276 10.1601C8.48923 10.2786 8.3857 10.2935 8.20854 10.2046C8.03138 10.1156 7.46028 9.92874 6.78267 9.32475C6.25568 8.85495 5.89986 8.27451 5.79633 8.09697C5.6928 7.91981 5.78512 7.82376 5.87407 7.73518C5.95368 7.65557 6.05123 7.52812 6.14019 7.42459C6.22877 7.32106 6.25829 7.24706 6.31734 7.12895C6.3764 7.01047 6.34687 6.90694 6.30239 6.81836C6.25867 6.72941 5.91406 5.85258 5.75634 5.502Z" fill="white" />

</svg>