<svg width="16" height="17" fill="none" xmlns="http://www.w3.org/2000/svg">
	<g clip-path="url(#clip0_96_57)" fill="#7B1FA2">
		<path d="M12.5 15.5a1 1 0 100-2 1 1 0 000 2zm3.2-13.711a.96.96 0 00-.692-.289 1 1 0 00-.993.894l-1.509 9.528a.5.5 0 00.977.207l2.475-9.311a.307.307 0 00.011-.051.476.476 0 00.031-.163c.007-.321-.1-.61-.3-.815zM10.08.607a2.13 2.13 0 01-.684-.086.5.5 0 00-.604.287L6.007 7.517 3.207.808a.5.5 0 00-.604-.287c-.221.063-.45.092-.68.086a.501.501 0 00-.475.699L5 9.478V16a.5.5 0 00.5.5h1A.5.5 0 007 16l.006-6.536 3.546-8.158a.502.502 0 00-.045-.479.53.53 0 00-.428-.22z" />
	</g>
	<defs>
		<clipPath id="clip0_96_57">
			<path fill="#fff" transform="translate(0 .5)" d="M0 0h16v16H0z" />
		</clipPath>
	</defs>
</svg>