<svg xmlns="http://www.w3.org/2000/svg" width="15" height="17" viewBox="0 0 15 17" fill="none">
	<path d="M14.6633 12.3142C14.5137 13.0998 13.8778 13.6983 13.0923 13.8105C11.8579 13.9975 9.8005 14.2219 7.4813 14.2219C5.1995 14.2219 3.14214 13.9975 1.87032 13.8105C1.08479 13.6983 0.448878 13.0998 0.299252 12.3142C0.149626 11.4539 0 10.182 0 8.61097C0 7.0399 0.149626 5.76808 0.299252 4.90773C0.448878 4.12219 1.08479 3.52369 1.87032 3.41147C3.10474 3.22444 5.1621 3 7.4813 3C9.8005 3 11.8204 3.22444 13.0923 3.41147C13.8778 3.52369 14.5137 4.12219 14.6633 4.90773C14.813 5.76808 15 7.0399 15 8.61097C14.9626 10.182 14.813 11.4539 14.6633 12.3142Z" fill="#FF3D00" />
	<path d="M5.98438 11.2291V5.99219L10.4732 8.61064L5.98438 11.2291Z" fill="white" />

</svg>