<svg width="148" height="75" viewBox="0 0 148 75" fill="none" xmlns="http://www.w3.org/2000/svg">
<path fill-rule="evenodd" clip-rule="evenodd" d="M146.204 74.1523C146.204 54.9326 138.569 36.5001 124.978 22.9098C111.388 9.31941 92.9554 1.68443 73.7357 1.68443C54.516 1.68443 36.0835 9.31941 22.4932 22.9098C8.90279 36.5001 1.2678 54.9326 1.2678 74.1523H0.432861C0.432861 73.9034 0.434127 73.6547 0.436655 73.4061C0.63158 54.2346 8.3318 35.8903 21.9028 22.3194C35.6497 8.57244 54.2946 0.849486 73.7357 0.849487C93.1768 0.849489 111.822 8.57244 125.569 22.3194C139.14 35.8904 146.84 54.2346 147.035 73.4061C147.037 73.6547 147.038 73.9034 147.038 74.1523H146.204Z" fill="#E3E4E9"/>
</svg>
